<?xml version="1.0" standalone="no"?>
<!DOCTYPE svg PUBLIC "-//W3C//DTD SVG 20010904//EN"
 "http://www.w3.org/TR/2001/REC-SVG-20010904/DTD/svg10.dtd">
<svg version="1.0" xmlns="http://www.w3.org/2000/svg"
 width="256.000000pt" height="256.000000pt" viewBox="0 0 256.000000 256.000000"
 preserveAspectRatio="xMidYMid meet">
<metadata>
Created by potrace 1.14, written by Peter Selinger 2001-2017
</metadata>
<g transform="translate(0.000000,256.000000) scale(0.100000,-0.100000)"
fill="#000000" stroke="none">
<path d="M878 2358 c-24 -43 -15 -154 20 -243 17 -44 79 -251 137 -460 59
-209 131 -467 161 -574 30 -106 54 -195 52 -196 -2 -2 -34 4 -73 12 -279 59
-563 -119 -566 -356 -2 -143 89 -264 242 -320 155 -57 303 -47 464 29 54 26
72 29 186 32 l126 4 109 54 c60 29 111 57 112 62 2 4 9 8 16 8 9 0 12 14 10
48 -3 52 -55 161 -153 320 -28 46 -51 87 -51 92 0 4 10 10 21 13 27 7 432 -38
519 -58 36 -8 79 -18 95 -21 l30 -7 -24 27 c-43 46 -170 74 -488 105 -61 6
-147 21 -190 32 -143 38 -164 42 -176 30 -8 -8 -5 -17 10 -33 11 -13 46 -63
78 -113 32 -49 81 -126 110 -170 64 -98 68 -109 47 -127 -18 -15 -28 -15 -106
-4 -69 11 -74 14 -81 49 -3 18 -15 55 -25 82 -11 28 -45 158 -75 290 -31 132
-94 401 -141 599 -47 197 -83 360 -81 362 2 2 30 -1 63 -7 38 -7 114 -9 216
-5 156 7 157 7 230 -22 41 -16 114 -54 161 -85 48 -31 87 -51 87 -44 0 6 -25
87 -55 178 l-56 166 -73 36 c-132 66 -234 79 -372 51 -98 -20 -163 -15 -238
19 -51 23 -159 92 -243 153 -20 14 -22 14 -35 -8z m129 -78 c101 -66 227 -120
284 -120 10 0 19 -4 19 -10 0 -21 -78 -9 -150 23 -103 45 -301 177 -266 177 4
0 55 -32 113 -70z m774 -169 c43 -19 43 -21 87 -143 23 -68 37 -116 29 -108
-8 8 -29 58 -47 110 -39 110 -42 115 -89 140 -47 25 -35 25 20 1z m-369 -1358
c39 -40 78 -114 78 -148 0 -11 -12 7 -25 40 -23 57 -91 135 -150 173 -11 7 -2
4 20 -7 22 -11 57 -37 77 -58z m-404 -105 c21 -21 -15 -48 -65 -48 -50 0 -69
23 -38 46 23 17 87 18 103 2z"/>
</g>
</svg>
